PathFileType  4	(X/Y/Z) C:\Users\antoi\Documents\MyRepositories\mobilecap\ResultsAnalysis
DataRate	CameraRate	NumFrames	NumMarkers	Units	OrigDataRate	OrigDataStartFrame	OrigNumFrames
100.0	100.0	5	51	mm	100.0	150	171
Frame#	Time	r_knee			r_shank_antsup			r_ankle			r_calc			r_5meta			r_toe			L_knee			L_shank_antsup			L_ankle			L_calc			L_5meta			L_toe			r_sh2			r_sh3			r_sh4			L_sh2			L_sh3			r_thigh1			r_thigh2			r_thigh3			r_thigh4			r_thigh5			L_thigh1			L_thigh2			L_thigh3			L_thigh4			r.ASIS			r.PSIS			L.ASIS			L.PSIS			C7			R_Shoulder			L_Shoulder			R_Sternum			L_Sternum			R_humerus			R_elbow_med			R_elbow_lat			R_forearm			R_wrist_radius			R_wrist_ulna			L_humerus			L_elbow_med			L_elbow_lat			L_forearm			L_wrist_radius			L_wrist_ulna			R_HJC			L_HJC			R_HJC_reg			L_HJC_reg			
		X1	Y1	Z1	X2	Y2	Z2	X3	Y3	Z3	X4	Y4	Z4	X5	Y5	Z5	X6	Y6	Z6	X7	Y7	Z7	X8	Y8	Z8	X9	Y9	Z9	X10	Y10	Z10	X11	Y11	Z11	X12	Y12	Z12	X13	Y13	Z13	X14	Y14	Z14	X15	Y15	Z15	X16	Y16	Z16	X17	Y17	Z17	X18	Y18	Z18	X19	Y19	Z19	X20	Y20	Z20	X21	Y21	Z21	X22	Y22	Z22	X23	Y23	Z23	X24	Y24	Z24	X25	Y25	Z25	X26	Y26	Z26	X27	Y27	Z27	X28	Y28	Z28	X29	Y29	Z29	X30	Y30	Z30	X31	Y31	Z31	X32	Y32	Z32	X33	Y33	Z33	X34	Y34	Z34	X35	Y35	Z35	X36	Y36	Z36	X37	Y37	Z37	X38	Y38	Z38	X39	Y39	Z39	X40	Y40	Z40	X41	Y41	Z41	X42	Y42	Z42	X43	Y43	Z43	X44	Y44	Z44	X45	Y45	Z45	X46	Y46	Z46	X47	Y47	Z47	X48	Y48	Z48	X49	Y49	Z49	X50	Y50	Z50	X51	Y51	Z51	

150	1.49000000	1472.85868	598.20911	-100.81516	1517.33229	453.80984	-118.56916	1493.57678	90.28232	-146.74700	1439.35628	67.70413	-211.83508	1636.90944	42.51149	-126.39315	1672.72156	78.14349	-176.09549	1190.22761	610.26397	-382.36057	1146.27043	408.40650	-357.13225	940.62287	167.50337	-345.31150	875.40856	167.36032	-282.28147	1037.19546	31.32650	-355.88810	1081.86113	52.37991	-297.90308	1528.40702	342.82049	-133.39782	1457.04844	440.46402	-75.70863	1462.59415	327.79248	-82.26657	1086.56295	444.03426	-410.18618	1026.68711	345.79442	-388.86442	1437.00902	881.12721	-47.77978	1478.22429	777.65757	-60.64927	1424.99022	734.41154	-57.47270	1332.72572	848.10956	-75.78621	1372.08705	736.61125	-78.85331	1357.05647	870.25426	-396.11423	1312.65123	743.72461	-391.78360	1253.65212	909.71514	-411.94968	1208.97643	780.89550	-407.78140	1434.23757	1154.64106	-84.99218	1254.01095	1198.19281	-177.57299	1440.23760	1129.99424	-362.97639	1257.10215	1200.26738	-271.24157	1404.46227	1664.17380	-314.40813	1460.13025	1631.70397	-130.02869	1461.49045	1579.39389	-476.33815	1516.34147	1552.59301	-263.54298	1519.30050	1544.14287	-319.90390	1337.25073	1414.30492	-10.39008	1204.89495	1344.74190	-27.08170	1226.48939	1376.52750	37.03289	1261.75645	1170.69902	103.16763	1268.07435	1075.92967	120.82892	1240.20913	1086.80090	144.57811	1428.65202	1279.59222	-498.46681	1326.92835	1219.49345	-453.66612	1353.74276	1204.88033	-523.60554	1425.30719	1010.84970	-519.14792	1449.60964	935.84898	-500.72264	1425.63341	936.02766	-525.13951	1346.87191	1065.83973	-118.51391	1343.21361	1055.96188	-315.72628	1358.88650	1060.17325	-128.90702	1364.96966	1064.25774	-312.97394	
151	1.50000000	1485.85432	599.05295	-101.17529	1527.46896	453.44150	-119.13475	1494.98854	90.73406	-146.77933	1440.21222	68.61510	-211.54594	1637.94963	41.18585	-126.41487	1674.46421	75.94702	-176.27513	1204.70721	608.84699	-383.84181	1157.14831	407.51033	-358.63588	945.96493	171.43381	-346.54633	880.58599	173.65819	-283.81840	1037.99577	32.23281	-355.89637	1083.20260	52.61689	-298.06406	1536.37723	342.46248	-133.90066	1467.90506	441.48487	-75.40204	1470.91547	328.69056	-81.83368	1097.98521	444.62845	-411.23486	1035.69943	347.96527	-389.89715	1449.87179	882.44184	-47.70604	1491.43494	779.03574	-60.53819	1438.36574	735.71199	-57.20644	1345.35820	848.94221	-74.72117	1385.40468	737.56728	-78.34323	1368.38890	870.44607	-397.59192	1325.43868	743.38320	-393.78334	1264.42750	909.06094	-411.41550	1221.08314	779.84393	-407.75170	1446.36984	1155.27524	-85.33568	1265.41351	1198.74717	-177.18531	1450.69209	1130.49230	-363.11204	1267.86466	1200.45956	-271.01574	1415.28338	1665.86411	-309.78652	1470.58340	1630.87372	-125.91204	1472.31410	1583.17839	-473.02233	1527.07728	1553.61930	-260.29493	1530.13028	1545.86136	-316.75397	1349.39610	1411.44966	-8.08072	1217.51550	1341.01577	-26.08607	1238.50278	1372.65086	38.54050	1274.84620	1166.52666	103.57391	1281.57416	1071.63331	120.71583	1253.64971	1082.29034	144.38953	1437.40849	1283.63019	-497.13494	1335.22713	1224.18987	-452.34862	1361.58892	1209.74295	-522.44823	1430.50499	1014.72997	-520.05710	1453.71551	938.91071	-502.66787	1429.77478	940.03563	-526.74766	1358.71529	1066.44603	-118.34948	1354.08133	1056.31226	-315.52806	1370.71478	1061.28542	-128.36975	1375.52643	1064.64893	-312.33864	
152	1.51000000	1498.45310	599.94716	-101.57227	1537.19795	453.20830	-119.61636	1496.03687	91.32273	-146.71762	1440.78022	69.41870	-211.18747	1638.62814	40.47797	-126.30313	1675.75247	74.49023	-176.31101	1220.33789	607.28182	-385.41323	1169.09539	406.58768	-359.94878	952.08219	175.95207	-347.60612	886.60660	180.75415	-285.20586	1039.02340	33.63917	-355.86883	1084.85071	53.10456	-298.18377	1543.73711	342.16974	-134.34176	1478.21365	442.61695	-75.12092	1478.67303	329.73656	-81.41300	1110.83238	445.27216	-412.35603	1046.00604	350.26535	-391.01919	1462.38667	883.83568	-47.54184	1504.27723	780.51024	-60.38094	1451.38481	737.11236	-57.05837	1357.61377	849.91346	-73.74749	1398.43155	738.79817	-77.99413	1380.09125	870.81672	-398.96627	1338.93883	743.12839	-395.72804	1275.54517	908.26552	-410.71683	1233.90801	778.53882	-407.74884	1458.28680	1156.46332	-85.59127	1276.72125	1199.56007	-176.84520	1460.85547	1131.35192	-363.31207	1278.42910	1200.96334	-270.81653	1426.11652	1667.71897	-305.20858	1481.11597	1630.33605	-121.92867	1483.21176	1587.19476	-469.70052	1537.78938	1554.81526	-257.13639	1540.93292	1547.73945	-313.64744	1361.76098	1408.89241	-5.79330	1230.29491	1337.65225	-25.48978	1250.58926	1369.11288	39.84199	1288.12216	1162.73957	103.79898	1295.28344	1067.71565	120.41276	1267.30926	1078.16625	144.02008	1446.12030	1288.01986	-495.85308	1343.55865	1229.34474	-451.03808	1369.33240	1215.04611	-521.31162	1435.68073	1019.08403	-520.94264	1457.77499	942.48880	-504.55560	1433.89386	944.50925	-528.32747	1370.45167	1067.48750	-118.14240	1364.81383	1056.97777	-315.27359	1382.55151	1062.61928	-127.73268	1385.89609	1065.36938	-311.71098	
153	1.52000000	1510.33505	600.70973	-102.01134	1546.39979	452.98224	-120.06995	1496.91307	91.96834	-146.63160	1441.21278	70.14583	-210.83485	1639.06983	40.11019	-126.12247	1676.77350	73.39376	-176.29491	1237.08198	605.55685	-387.06535	1182.06253	405.64379	-361.08683	958.97204	181.11300	-348.49953	893.52709	188.68644	-286.40336	1040.32950	35.64127	-355.81085	1086.84034	53.93406	-298.30270	1550.46938	341.81390	-134.78940	1487.81320	443.68026	-74.98121	1485.81302	330.75744	-81.15661	1125.00878	445.95152	-413.55431	1057.52435	352.71048	-392.19598	1474.40890	885.04327	-47.37896	1516.45688	781.75121	-60.22442	1463.67141	738.35796	-57.11035	1369.36544	850.92912	-73.11241	1410.78597	740.10114	-77.91982	1392.20623	871.30845	-400.23745	1353.14729	742.92508	-397.58945	1287.08780	907.28654	-409.91875	1247.48980	776.93278	-407.84451	1470.09613	1157.98637	-85.84311	1287.98065	1200.49880	-176.48764	1470.69497	1132.53277	-363.69526	1288.82825	1201.70641	-270.56982	1436.87545	1669.64839	-300.64929	1491.73543	1630.02195	-118.06225	1494.07119	1591.35591	-466.31550	1548.44179	1556.10004	-254.06049	1551.64003	1549.68420	-310.58488	1374.24105	1406.62305	-3.56999	1243.13004	1334.68277	-25.22837	1262.69054	1365.92039	40.98281	1301.54810	1159.35703	103.84248	1309.19637	1064.20364	119.91285	1281.17431	1074.43666	143.46711	1454.75270	1292.68315	-494.63107	1351.88872	1234.86712	-449.79987	1376.98743	1220.72446	-520.25301	1440.87305	1023.84135	-521.79616	1461.82115	946.52372	-506.34075	1438.03834	949.35461	-529.88561	1382.16675	1068.77529	-117.98385	1375.38240	1057.90552	-315.05619	1394.43851	1063.98464	-127.13467	1396.09161	1066.34787	-311.23964	
154	1.53000000	1521.30481	601.22917	-102.50052	1554.98724	452.66529	-120.56701	1497.75924	92.62583	-146.59793	1441.63457	70.82165	-210.56109	1639.38548	39.88898	-125.92954	1677.67908	72.36699	-176.30305	1254.83513	603.68273	-388.77437	1195.93750	404.72001	-362.09642	966.61913	186.93550	-349.24867	901.38926	197.44822	-287.39032	1041.95830	38.32013	-355.73472	1089.22271	55.19971	-298.47523	1556.60933	341.32070	-135.31576	1496.61985	444.54389	-75.07092	1492.33138	331.62210	-81.17806	1140.30439	446.65622	-414.81318	1070.09114	355.32787	-393.38210	1485.87535	885.87081	-47.27448	1527.78732	782.51061	-60.09156	1474.96845	739.26412	-57.37831	1380.57372	851.92936	-72.97941	1422.19399	741.29948	-78.14885	1404.75907	871.85756	-401.42459	1368.03710	742.74075	-399.35158	1299.13314	906.09446	-409.10157	1261.83677	775.00761	-408.11948	1481.91707	1159.58344	-86.19967	1299.21906	1201.44556	-176.04945	1480.22612	1133.97323	-364.34619	1299.11109	1202.59150	-270.20512	1447.47724	1671.57053	-296.08408	1502.44523	1629.83883	-114.28420	1504.75339	1595.57401	-462.82537	1559.00011	1557.39895	-251.05983	1562.18616	1551.61583	-307.57061	1386.69719	1404.60802	-1.46816	1255.89318	1332.10812	-25.14721	1274.75028	1363.05248	42.03553	1315.07299	1156.35661	103.71748	1323.28255	1061.08391	119.22223	1295.20922	1071.06877	142.73530	1463.27750	1297.52036	-493.47128	1360.15258	1240.62151	-448.69503	1384.57312	1226.66002	-519.31476	1446.12185	1028.89453	-522.61696	1465.91090	950.91418	-508.00757	1442.25696	954.45147	-531.42446	1393.93895	1070.09965	-117.96720	1385.77190	1059.02695	-314.96956	1406.37058	1065.25153	-126.72042	1406.14736	1067.49421	-311.04323	
